# xmcd
#
# Track frame offsets:
#	150
#	36720
#	74255
#	106482
#	142835
#
# Disc length: 2585 seconds
#
# Revision: 2
# Processed by: cddbd v1.5.2PL0 Copyright (c) Steve Scherf et al.
# Submitted via: EasyCDDAExtractor 15.2.5.1
#
DISCID=460a1705
DTITLE=Resonance - 觀想 Music for Meditation
DYEAR=1998
DGENRE=Blues
TTITLE0=祈請 Supplication
TTITLE1=觀想 Invitation and Imagination
TTITLE2=相應 Resonance
TTITLE3=菩薩心 The heart of Budhi tree
TTITLE4=迴 Returning
EXTD=
EXTT0=
EXTT1=
EXTT2=
EXTT3=
EXTT4=
PLAYORDER=
